<svg id="Logo" xmlns="http://www.w3.org/2000/svg" viewBox="0 0 81.0193 101.8706">
  <title>shield-rgb</title>
  <g>
    <path d="M103.5741,66.8647V95.4766a29.5927,29.5927,0,0,1-59.1854,0V45.0289h37.358V34.111H33.4726V95.4766a40.51,40.51,0,0,0,81.0193,0V66.8647Z" transform="translate(-33.4726 -34.111)" fill="#003c71"/>
    <path d="M85.8617,116.6019a44.0625,44.0625,0,0,1-.4406,6.1622,29.7823,29.7823,0,0,0,12.1925-9.5,55.836,55.836,0,0,0-53.2208-52.37V72.7645a43.9616,43.9616,0,0,1,41.4689,43.8374" transform="translate(-33.4726 -34.111)" fill="#0077ca"/>
    <polygon points="70.099 0 59.178 0 59.178 10.918 70.099 10.918 70.099 21.836 81.019 21.836 81.019 10.918 81.019 0 70.099 0" fill="#ff6a39"/>
  </g>
</svg>
